<?xml version="1.0" standalone="no"?><!DOCTYPE svg PUBLIC "-//W3C//DTD SVG 1.1//EN" "http://www.w3.org/Graphics/SVG/1.1/DTD/svg11.dtd"><svg t="1726623643653" class="icon" viewBox="0 0 1024 1024" version="1.1" xmlns="http://www.w3.org/2000/svg" p-id="2881" xmlns:xlink="http://www.w3.org/1999/xlink" width="200" height="200"><path d="M707.44064 324.79232 473.7024 324.79232c-6.90176-36.80256-39.09632-64.67584-77.88544-64.67584L225.28 260.11648c-43.8272 0-79.36 35.51232-79.36 79.40096l0 64.63488 0 64.67584 0 229.35552c0 43.80672 35.5328 79.36 79.36 79.36l482.16064 0c43.84768 0 79.38048-35.55328 79.38048-79.36l0-294.03136C786.82112 360.32512 751.28832 324.79232 707.44064 324.79232zM688.49664 604.52864c0 14.68416-11.91936 26.56256-26.58304 26.56256l-54.33344 0 0 54.35392c0 14.68416-11.8784 26.56256-26.58304 26.56256l-43.25376 0c-7.33184 0-13.98784-2.9696-18.80064-7.80288-4.79232-4.79232-7.80288-11.44832-7.80288-18.80064l0.02048-54.31296-54.31296 0c-7.35232 0-14.00832-2.9696-18.80064-7.80288-4.8128-4.79232-7.80288-11.44832-7.80288-18.75968l0-43.27424c0-14.68416 11.8784-26.56256 26.56256-26.56256l54.33344-0.04096 0-54.31296c0-14.68416 11.91936-26.56256 26.58304-26.56256l43.25376 0c14.70464 0 26.60352 11.8784 26.60352 26.56256l-0.02048 54.35392 54.33344-0.04096c14.68416 0.04096 26.60352 11.91936 26.60352 26.60352L688.49664 604.52864z" p-id="2882" fill="#1296db"></path><path d="M857.27232 332.92288l-60.88704 0c12.55424 15.48288 20.3776 34.87744 20.3776 56.27904l0 332.36992c0 2.99008-0.6144 5.8368-0.90112 8.76544 11.34592-11.55072 20.60288-25.088 25.92768-39.69024l63.73376-281.64096C920.86272 366.96064 899.25632 332.92288 857.27232 332.92288z" p-id="2883" fill="#1296db"></path></svg>